<?xml version="1.0" standalone="no"?>
<!DOCTYPE svg PUBLIC "-//W3C//DTD SVG 20010904//EN"
 "http://www.w3.org/TR/2001/REC-SVG-20010904/DTD/svg10.dtd">
<svg version="1.0" xmlns="http://www.w3.org/2000/svg"
 width="1024.000000pt" height="1024.000000pt" viewBox="0 0 1024.000000 1024.000000"
 preserveAspectRatio="xMidYMid meet">
<metadata>
Created by potrace 1.14, written by Peter Selinger 2001-2017
</metadata>
<g transform="translate(0.000000,1024.000000) scale(0.100000,-0.100000)"
fill="#000000" stroke="none">
<path d="M3305 10230 c-33 -4 -87 -10 -120 -14 -33 -4 -80 -9 -105 -11 -25 -2
-61 -7 -80 -10 -19 -2 -62 -7 -94 -10 -33 -3 -71 -7 -85 -9 -14 -3 -57 -7 -94
-11 -37 -3 -76 -8 -85 -9 -9 -2 -53 -7 -97 -12 -44 -4 -82 -8 -85 -9 -3 -1
-39 -5 -80 -9 -41 -4 -86 -9 -100 -11 -14 -2 -50 -6 -80 -10 -30 -3 -71 -8
-90 -10 -19 -2 -60 -7 -90 -10 -57 -6 -128 -14 -168 -20 -13 -2 -53 -7 -90
-10 -37 -3 -101 -10 -142 -15 -41 -5 -96 -12 -122 -15 -27 -3 -67 -7 -90 -10
-24 -2 -65 -7 -93 -10 -27 -3 -66 -7 -85 -10 -19 -2 -60 -7 -90 -10 -30 -3
-66 -8 -80 -10 -14 -2 -52 -7 -85 -10 -33 -3 -69 -7 -80 -10 -11 -2 -26 -4
-32 -4 -9 -1 -13 -25 -13 -84 l0 -83 120 -294 c66 -162 124 -304 129 -315 5
-11 64 -155 131 -320 66 -165 125 -309 130 -320 11 -25 45 -108 105 -257 25
-62 50 -122 54 -133 16 -35 99 -238 131 -320 17 -44 38 -93 45 -110 7 -16 47
-113 89 -215 236 -582 370 -910 387 -947 10 -24 19 -46 19 -49 0 -3 7 -20 15
-37 8 -18 39 -95 70 -172 31 -77 60 -149 65 -160 5 -11 80 -193 166 -405 86
-212 171 -421 189 -465 46 -109 308 -751 524 -1285 51 -124 96 -234 101 -245
5 -11 41 -99 80 -195 100 -247 150 -370 165 -405 12 -27 73 -178 140 -345 29
-72 36 -89 58 -140 9 -19 30 -71 47 -115 17 -44 37 -93 44 -110 24 -56 38 -90
93 -225 30 -74 60 -148 68 -165 7 -16 76 -187 154 -380 139 -343 191 -470 217
-530 7 -16 38 -93 69 -170 65 -161 286 -700 348 -852 l42 -103 101 0 101 0
248 558 c136 306 258 580 271 607 12 28 58 131 102 230 44 99 91 205 105 235
13 30 40 91 60 135 37 85 54 124 111 248 20 44 36 81 36 83 0 2 13 32 29 66
15 35 92 207 170 383 160 360 151 341 219 490 58 128 60 132 185 415 52 118
109 245 126 283 17 37 31 70 31 72 0 3 22 53 50 111 27 58 50 108 50 111 0 2
11 28 24 56 13 29 96 216 186 417 89 201 170 383 180 405 10 22 156 351 324
730 169 380 313 704 321 720 17 37 213 477 270 605 23 52 49 111 57 130 9 19
25 55 36 80 11 25 131 295 267 600 136 305 328 737 427 960 99 223 190 428
203 455 12 28 37 84 55 125 18 41 44 100 57 130 152 335 153 337 153 425 0 95
8 89 -115 100 -33 3 -76 8 -95 10 -65 9 -145 19 -255 31 -16 1 -48 5 -70 8
-51 7 -205 25 -270 32 -27 2 -84 9 -125 14 -113 14 -160 19 -215 25 -27 3 -84
10 -125 15 -41 5 -100 12 -130 15 -30 4 -66 8 -80 10 -14 2 -52 6 -85 10 -85
9 -146 16 -175 20 -14 2 -50 6 -80 10 -30 3 -71 8 -90 10 -19 3 -57 8 -85 10
-27 3 -66 8 -85 10 -19 2 -82 9 -140 15 -58 6 -121 13 -140 15 -19 2 -78 7
-131 10 l-95 5 -13 -38 c-7 -20 -24 -64 -36 -97 -13 -33 -51 -136 -85 -230
-56 -153 -92 -251 -136 -370 -8 -22 -16 -44 -18 -50 -2 -5 -6 -17 -9 -25 -9
-22 -324 -879 -362 -985 -54 -151 -115 -318 -130 -355 -8 -19 -39 -105 -70
-190 -31 -85 -60 -164 -65 -175 -4 -11 -27 -72 -49 -135 -23 -63 -50 -137 -60
-165 -11 -27 -37 -99 -59 -160 -23 -60 -63 -171 -91 -245 -52 -142 -55 -150
-119 -325 -37 -102 -294 -798 -349 -945 -14 -36 -41 -109 -60 -164 l-36 -98
-17 45 c-10 25 -117 348 -239 718 -122 371 -226 683 -231 694 -4 11 -39 117
-78 235 -38 118 -183 559 -322 980 -139 421 -306 927 -371 1125 -65 198 -163
493 -216 655 l-98 295 -65 1 c-36 0 -92 -3 -125 -6z"/>
</g>
</svg>
