<svg version="1.1" viewBox="0.0 0.0 600.0 371.0" fill="none" stroke="none" stroke-linecap="square" stroke-miterlimit="10" width="600" height="371" xmlns:xlink="http://www.w3.org/1999/xlink" xmlns="http://www.w3.org/2000/svg"><path fill="#ffffff" d="M0 0L600.0 0L600.0 371.0L0 371.0L0 0Z" fill-rule="nonzero"/><path stroke="#333333" stroke-width="1.0" stroke-linecap="butt" d="M45.5 300.5L581.5 300.5" fill-rule="nonzero"/><path stroke="#cccccc" stroke-width="1.0" stroke-linecap="butt" d="M45.5 258.5L581.5 258.5" fill-rule="nonzero"/><path stroke="#cccccc" stroke-width="1.0" stroke-linecap="butt" d="M45.5 215.5L581.5 215.5" fill-rule="nonzero"/><path stroke="#cccccc" stroke-width="1.0" stroke-linecap="butt" d="M45.5 173.5L581.5 173.5" fill-rule="nonzero"/><path stroke="#cccccc" stroke-width="1.0" stroke-linecap="butt" d="M45.5 130.5L581.5 130.5" fill-rule="nonzero"/><path stroke="#cccccc" stroke-width="1.0" stroke-linecap="butt" d="M45.5 88.5L581.5 88.5" fill-rule="nonzero"/><path stroke="#000000" stroke-width="1.0" stroke-linecap="butt" stroke-opacity="0.0" d="M45.5 286.5L581.5 286.5" fill-rule="nonzero"/><path stroke="#000000" stroke-width="1.0" stroke-linecap="butt" stroke-opacity="0.0" d="M45.5 272.5L581.5 272.5" fill-rule="nonzero"/><path stroke="#000000" stroke-width="1.0" stroke-linecap="butt" stroke-opacity="0.0" d="M45.5 243.5L581.5 243.5" fill-rule="nonzero"/><path stroke="#000000" stroke-width="1.0" stroke-linecap="butt" stroke-opacity="0.0" d="M45.5 229.5L581.5 229.5" fill-rule="nonzero"/><path stroke="#000000" stroke-width="1.0" stroke-linecap="butt" stroke-opacity="0.0" d="M45.5 201.5L581.5 201.5" fill-rule="nonzero"/><path stroke="#000000" stroke-width="1.0" stroke-linecap="butt" stroke-opacity="0.0" d="M45.5 187.5L581.5 187.5" fill-rule="nonzero"/><path stroke="#000000" stroke-width="1.0" stroke-linecap="butt" stroke-opacity="0.0" d="M45.5 159.5L581.5 159.5" fill-rule="nonzero"/><path stroke="#000000" stroke-width="1.0" stroke-linecap="butt" stroke-opacity="0.0" d="M45.5 144.5L581.5 144.5" fill-rule="nonzero"/><path stroke="#000000" stroke-width="1.0" stroke-linecap="butt" stroke-opacity="0.0" d="M45.5 116.5L581.5 116.5" fill-rule="nonzero"/><path stroke="#000000" stroke-width="1.0" stroke-linecap="butt" stroke-opacity="0.0" d="M45.5 102.5L581.5 102.5" fill-rule="nonzero"/><clipPath id="id_0"><path d="M45.55 88.28333L581.45 88.28333L581.45 300.45L45.55 300.45L45.55 88.28333Z" clip-rule="nonzero"/></clipPath><path stroke="#000000" stroke-width="2.0" stroke-linecap="butt" stroke-opacity="0.0" clip-path="url(#id_0)" d="M102.0 300.0L77.0 300.0L77.0 119.0C77.0 117.89543 77.89543 117.0 79.0 117.0L100.0 117.0C101.10457 117.0 102.0 117.89543 102.0 119.0Z" fill-rule="nonzero"/><path fill="#93c47d" clip-path="url(#id_0)" d="M102.0 300.0L77.0 300.0L77.0 119.0C77.0 117.89543 77.89543 117.0 79.0 117.0L100.0 117.0C101.10457 117.0 102.0 117.89543 102.0 119.0Z" fill-rule="nonzero"/><path stroke="#000000" stroke-width="2.0" stroke-linecap="butt" stroke-opacity="0.0" clip-path="url(#id_0)" d="M186.0 300.0L161.0 300.0L161.0 205.0C161.0 203.89543 161.89543 203.0 163.0 203.0L184.0 203.0C185.10457 203.0 186.0 203.89543 186.0 205.0Z" fill-rule="nonzero"/><path fill="#93c47d" clip-path="url(#id_0)" d="M186.0 300.0L161.0 300.0L161.0 205.0C161.0 203.89543 161.89543 203.0 163.0 203.0L184.0 203.0C185.10457 203.0 186.0 203.89543 186.0 205.0Z" fill-rule="nonzero"/><path stroke="#000000" stroke-width="2.0" stroke-linecap="butt" stroke-opacity="0.0" clip-path="url(#id_0)" d="M270.0 300.0L245.0 300.0L245.0 250.0C245.0 248.89543 245.89543 248.0 247.0 248.0L268.0 248.0C269.10458 248.0 270.0 248.89543 270.0 250.0Z" fill-rule="nonzero"/><path fill="#93c47d" clip-path="url(#id_0)" d="M270.0 300.0L245.0 300.0L245.0 250.0C245.0 248.89543 245.89543 248.0 247.0 248.0L268.0 248.0C269.10458 248.0 270.0 248.89543 270.0 250.0Z" fill-rule="nonzero"/><path stroke="#000000" stroke-width="2.0" stroke-linecap="butt" stroke-opacity="0.0" clip-path="url(#id_0)" d="M355.0 300.0L330.0 300.0L330.0 269.0C330.0 267.89542 330.89542 267.0 332.0 267.0L353.0 267.0C354.10458 267.0 355.0 267.89542 355.0 269.0Z" fill-rule="nonzero"/><path fill="#93c47d" clip-path="url(#id_0)" d="M355.0 300.0L330.0 300.0L330.0 269.0C330.0 267.89542 330.89542 267.0 332.0 267.0L353.0 267.0C354.10458 267.0 355.0 267.89542 355.0 269.0Z" fill-rule="nonzero"/><path stroke="#000000" stroke-width="2.0" stroke-linecap="butt" stroke-opacity="0.0" clip-path="url(#id_0)" d="M439.0 300.0L414.0 300.0L414.0 284.0C414.0 282.89542 414.89542 282.0 416.0 282.0L437.0 282.0C438.10458 282.0 439.0 282.89542 439.0 284.0Z" fill-rule="nonzero"/><path fill="#93c47d" clip-path="url(#id_0)" d="M439.0 300.0L414.0 300.0L414.0 284.0C414.0 282.89542 414.89542 282.0 416.0 282.0L437.0 282.0C438.10458 282.0 439.0 282.89542 439.0 284.0Z" fill-rule="nonzero"/><path stroke="#000000" stroke-width="2.0" stroke-linecap="butt" stroke-opacity="0.0" clip-path="url(#id_0)" d="M523.0 300.0L498.0 300.0L498.0 288.0C498.0 286.89542 498.89542 286.0 500.0 286.0L521.0 286.0C522.10455 286.0 523.0 286.89542 523.0 288.0Z" fill-rule="nonzero"/><path fill="#93c47d" clip-path="url(#id_0)" d="M523.0 300.0L498.0 300.0L498.0 288.0C498.0 286.89542 498.89542 286.0 500.0 286.0L521.0 286.0C522.10455 286.0 523.0 286.89542 523.0 288.0Z" fill-rule="nonzero"/><path stroke="#000000" stroke-width="2.0" stroke-linecap="butt" stroke-opacity="0.0" clip-path="url(#id_0)" d="M213.0 300.0L188.0 300.0L188.0 211.0C188.0 209.89543 188.89543 209.0 190.0 209.0L211.0 209.0C212.10457 209.0 213.0 209.89543 213.0 211.0Z" fill-rule="nonzero"/><path fill="#ffd966" clip-path="url(#id_0)" d="M213.0 300.0L188.0 300.0L188.0 211.0C188.0 209.89543 188.89543 209.0 190.0 209.0L211.0 209.0C212.10457 209.0 213.0 209.89543 213.0 211.0Z" fill-rule="nonzero"/><path stroke="#000000" stroke-width="2.0" stroke-linecap="butt" stroke-opacity="0.0" clip-path="url(#id_0)" d="M297.0 300.0L272.0 300.0L272.0 257.0C272.0 255.89543 272.89542 255.0 274.0 255.0L295.0 255.0C296.10458 255.0 297.0 255.89543 297.0 257.0Z" fill-rule="nonzero"/><path fill="#ffd966" clip-path="url(#id_0)" d="M297.0 300.0L272.0 300.0L272.0 257.0C272.0 255.89543 272.89542 255.0 274.0 255.0L295.0 255.0C296.10458 255.0 297.0 255.89543 297.0 257.0Z" fill-rule="nonzero"/><path stroke="#000000" stroke-width="2.0" stroke-linecap="butt" stroke-opacity="0.0" clip-path="url(#id_0)" d="M382.0 300.0L357.0 300.0L357.0 280.0C357.0 278.89542 357.89542 278.0 359.0 278.0L380.0 278.0C381.10458 278.0 382.0 278.89542 382.0 280.0Z" fill-rule="nonzero"/><path fill="#ffd966" clip-path="url(#id_0)" d="M382.0 300.0L357.0 300.0L357.0 280.0C357.0 278.89542 357.89542 278.0 359.0 278.0L380.0 278.0C381.10458 278.0 382.0 278.89542 382.0 280.0Z" fill-rule="nonzero"/><path stroke="#000000" stroke-width="2.0" stroke-linecap="butt" stroke-opacity="0.0" clip-path="url(#id_0)" d="M466.0 300.0L441.0 300.0L441.0 291.0C441.0 289.89542 441.89542 289.0 443.0 289.0L464.0 289.0C465.10458 289.0 466.0 289.89542 466.0 291.0Z" fill-rule="nonzero"/><path fill="#ffd966" clip-path="url(#id_0)" d="M466.0 300.0L441.0 300.0L441.0 291.0C441.0 289.89542 441.89542 289.0 443.0 289.0L464.0 289.0C465.10458 289.0 466.0 289.89542 466.0 291.0Z" fill-rule="nonzero"/><path stroke="#000000" stroke-width="2.0" stroke-linecap="butt" stroke-opacity="0.0" clip-path="url(#id_0)" d="M550.0 300.0L525.0 300.0L525.0 297.0C525.0 295.89542 525.89545 295.0 527.0 295.0L548.0 295.0C549.10455 295.0 550.0 295.89542 550.0 297.0Z" fill-rule="nonzero"/><path fill="#ffd966" clip-path="url(#id_0)" d="M550.0 300.0L525.0 300.0L525.0 297.0C525.0 295.89542 525.89545 295.0 527.0 295.0L548.0 295.0C549.10455 295.0 550.0 295.89542 550.0 297.0Z" fill-rule="nonzero"/><path fill="#000000" d="M303.5625 346.4344L304.6875 346.73126Q304.32812 348.1219 303.40625 348.85626Q302.48438 349.59064 301.14062 349.59064Q299.75 349.59064 298.875 349.02814Q298.0 348.46564 297.54688 347.40314Q297.09375 346.325 297.09375 345.09064Q297.09375 343.7469 297.60938 342.7469Q298.125 341.7469 299.0625 341.23126Q300.01562 340.71564 301.15625 340.71564Q302.4375 340.71564 303.3125 341.3719Q304.20312 342.02814 304.54688 343.21564L303.42188 343.48126Q303.125 342.54376 302.54688 342.1219Q301.98438 341.6844 301.125 341.6844Q300.14062 341.6844 299.46875 342.16876Q298.8125 342.6375 298.53125 343.4344Q298.26562 344.23126 298.26562 345.09064Q298.26562 346.1844 298.57812 346.9969Q298.90625 347.8094 299.57812 348.21564Q300.25 348.6219 301.04688 348.6219Q302.0 348.6219 302.65625 348.075Q303.32812 347.52814 303.5625 346.4344ZM305.90625 346.34064Q305.90625 344.60626 306.85938 343.77814Q307.65625 343.09064 308.8125 343.09064Q310.09375 343.09064 310.90625 343.9344Q311.73438 344.7625 311.73438 346.2469Q311.73438 347.45 311.375 348.1375Q311.01562 348.825 310.3125 349.21564Q309.625 349.59064 308.8125 349.59064Q307.51562 349.59064 306.70312 348.7625Q305.90625 347.91876 305.90625 346.34064ZM306.98438 346.34064Q306.98438 347.52814 307.5 348.1219Q308.03125 348.71564 308.8125 348.71564Q309.60938 348.71564 310.125 348.1219Q310.64062 347.52814 310.64062 346.3094Q310.64062 345.15314 310.10938 344.5594Q309.59375 343.96564 308.8125 343.96564Q308.03125 343.96564 307.5 344.5594Q306.98438 345.1375 306.98438 346.34064ZM313.28125 349.45L313.28125 343.23126L314.23438 343.23126L314.23438 344.16876Q314.59375 343.5125 314.89062 343.3094Q315.20312 343.09064 315.57812 343.09064Q316.10938 343.09064 316.65625 343.41876L316.29688 344.40314Q315.90625 344.16876 315.53125 344.16876Q315.17188 344.16876 314.89062 344.3875Q314.625 344.59064 314.51562 344.96564Q314.32812 345.52814 314.32812 346.1844L314.32812 349.45L313.28125 349.45ZM321.54688 347.45L322.64062 347.575Q322.39062 348.52814 321.6875 349.0594Q320.98438 349.59064 319.90625 349.59064Q318.54688 349.59064 317.73438 348.7469Q316.9375 347.90314 316.9375 346.3875Q316.9375 344.825 317.75 343.96564Q318.5625 343.09064 319.84375 343.09064Q321.09375 343.09064 321.875 343.9344Q322.67188 344.77814 322.67188 346.325Q322.67188 346.41876 322.67188 346.60626L318.03125 346.60626Q318.09375 347.6375 318.60938 348.1844Q319.125 348.71564 319.90625 348.71564Q320.48438 348.71564 320.89062 348.41876Q321.3125 348.10626 321.54688 347.45ZM318.09375 345.7469L321.5625 345.7469Q321.5 344.95 321.17188 344.5594Q320.65625 343.95 319.85938 343.95Q319.125 343.95 318.625 344.4344Q318.14062 344.91876 318.09375 345.7469ZM323.875 347.59064L324.90625 347.4344Q325.0 348.0594 325.39062 348.3875Q325.79688 348.71564 326.53125 348.71564Q327.25 348.71564 327.59375 348.4344Q327.95312 348.1375 327.95312 347.73126Q327.95312 347.3719 327.64062 347.16876Q327.42188 347.02814 326.5625 346.8094Q325.40625 346.5125 324.95312 346.3094Q324.51562 346.09064 324.28125 345.71564Q324.04688 345.34064 324.04688 344.8719Q324.04688 344.46564 324.23438 344.10626Q324.42188 343.7469 324.75 343.5125Q325.0 343.34064 325.42188 343.21564Q325.84375 343.09064 326.34375 343.09064Q327.0625 343.09064 327.60938 343.3094Q328.17188 343.5125 328.4375 343.8719Q328.70312 344.23126 328.79688 344.825L327.76562 344.96564Q327.70312 344.4969 327.35938 344.23126Q327.03125 343.95 326.40625 343.95Q325.6875 343.95 325.375 344.2Q325.0625 344.4344 325.0625 344.7625Q325.0625 344.96564 325.1875 345.1219Q325.32812 345.29376 325.59375 345.40314Q325.75 345.46564 326.53125 345.66876Q327.65625 345.98126 328.09375 346.16876Q328.53125 346.35626 328.78125 346.71564Q329.03125 347.075 329.03125 347.6219Q329.03125 348.15314 328.71875 348.6219Q328.42188 349.075 327.84375 349.34064Q327.26562 349.59064 326.53125 349.59064Q325.3125 349.59064 324.67188 349.09064Q324.04688 348.575 323.875 347.59064Z" fill-rule="nonzero"/><path fill="#000000" d="M33.05 300.21564Q33.05 298.6844 33.3625 297.7625Q33.675 296.825 34.284374 296.325Q34.909374 295.825 35.846874 295.825Q36.534374 295.825 37.05 296.10626Q37.58125 296.3875 37.925 296.91876Q38.26875 297.4344 38.45625 298.1844Q38.64375 298.9344 38.64375 300.21564Q38.64375 301.73126 38.33125 302.65314Q38.034374 303.575 37.409374 304.09064Q36.8 304.59064 35.846874 304.59064Q34.6125 304.59064 33.89375 303.7Q33.05 302.6375 33.05 300.21564ZM34.128124 300.21564Q34.128124 302.325 34.628124 303.02814Q35.128124 303.73126 35.846874 303.73126Q36.58125 303.73126 37.065624 303.02814Q37.565624 302.325 37.565624 300.21564Q37.565624 298.09064 37.065624 297.40314Q36.58125 296.7 35.83125 296.7Q35.1125 296.7 34.675 297.3094Q34.128124 298.09064 34.128124 300.21564Z" fill-rule="nonzero"/><path fill="#000000" d="M23.01875 262.01666L21.971874 262.01666L21.971874 255.29791Q21.58125 255.65729 20.95625 256.0323Q20.346874 256.39166 19.8625 256.56354L19.8625 255.54791Q20.7375 255.12604 21.39375 254.54791Q22.065624 253.95416 22.346874 253.39166L23.01875 253.39166L23.01875 262.01666ZM26.05 257.7823Q26.05 256.25104 26.3625 255.32916Q26.675 254.39166 27.284374 253.89166Q27.909374 253.39166 28.846874 253.39166Q29.534374 253.39166 30.05 253.67291Q30.58125 253.95416 30.925 254.48541Q31.26875 255.00104 31.45625 255.75104Q31.64375 256.50104 31.64375 257.7823Q31.64375 259.2979 31.33125 260.2198Q31.034374 261.14166 30.409374 261.6573Q29.8 262.1573 28.846874 262.1573Q27.6125 262.1573 26.89375 261.26666Q26.05 260.20416 26.05 257.7823ZM27.128124 257.7823Q27.128124 259.89166 27.628124 260.5948Q28.128124 261.2979 28.846874 261.2979Q29.58125 261.2979 30.065624 260.5948Q30.565624 259.89166 30.565624 257.7823Q30.565624 255.65729 30.065624 254.96979Q29.58125 254.26666 28.83125 254.26666Q28.1125 254.26666 27.675 254.87604Q27.128124 255.65729 27.128124 257.7823ZM33.05 257.7823Q33.05 256.25104 33.3625 255.32916Q33.675 254.39166 34.284374 253.89166Q34.909374 253.39166 35.846874 253.39166Q36.534374 253.39166 37.05 253.67291Q37.58125 253.95416 37.925 254.48541Q38.26875 255.00104 38.45625 255.75104Q38.64375 256.50104 38.64375 257.7823Q38.64375 259.2979 38.33125 260.2198Q38.034374 261.14166 37.409374 261.6573Q36.8 262.1573 35.846874 262.1573Q34.6125 262.1573 33.89375 261.26666Q33.05 260.20416 33.05 257.7823ZM34.128124 257.7823Q34.128124 259.89166 34.628124 260.5948Q35.128124 261.2979 35.846874 261.2979Q36.58125 261.2979 37.065624 260.5948Q37.565624 259.89166 37.565624 257.7823Q37.565624 255.65729 37.065624 254.96979Q36.58125 254.26666 35.83125 254.26666Q35.1125 254.26666 34.675 254.87604Q34.128124 255.65729 34.128124 257.7823Z" fill-rule="nonzero"/><path fill="#000000" d="M24.596874 218.5677L24.596874 219.58333L18.909374 219.58333Q18.909374 219.20833 19.034374 218.84895Q19.253124 218.27083 19.721874 217.70833Q20.20625 217.14583 21.1125 216.41145Q22.51875 215.2552 23.003124 214.58333Q23.503124 213.91145 23.503124 213.3177Q23.503124 212.6927 23.05 212.27083Q22.596874 211.83333 21.878124 211.83333Q21.1125 211.83333 20.659374 212.28645Q20.20625 212.73958 20.190624 213.55208L19.1125 213.4427Q19.221874 212.22395 19.940624 211.59895Q20.675 210.95833 21.909374 210.95833Q23.14375 210.95833 23.8625 211.64583Q24.58125 212.33333 24.58125 213.34895Q24.58125 213.86458 24.3625 214.36458Q24.159374 214.84895 23.659374 215.41145Q23.175 215.95833 22.05 216.91145Q21.096874 217.70833 20.815624 218.0052Q20.55 218.28645 20.378124 218.5677L24.596874 218.5677ZM26.05 215.34895Q26.05 213.8177 26.3625 212.89583Q26.675 211.95833 27.284374 211.45833Q27.909374 210.95833 28.846874 210.95833Q29.534374 210.95833 30.05 211.23958Q30.58125 211.52083 30.925 212.05208Q31.26875 212.5677 31.45625 213.3177Q31.64375 214.0677 31.64375 215.34895Q31.64375 216.86458 31.33125 217.78645Q31.034374 218.70833 30.409374 219.22395Q29.8 219.72395 28.846874 219.72395Q27.6125 219.72395 26.89375 218.83333Q26.05 217.77083 26.05 215.34895ZM27.128124 215.34895Q27.128124 217.45833 27.628124 218.16145Q28.128124 218.86458 28.846874 218.86458Q29.58125 218.86458 30.065624 218.16145Q30.565624 217.45833 30.565624 215.34895Q30.565624 213.22395 30.065624 212.53645Q29.58125 211.83333 28.83125 211.83333Q28.1125 211.83333 27.675 212.4427Q27.128124 213.22395 27.128124 215.34895ZM33.05 215.34895Q33.05 213.8177 33.3625 212.89583Q33.675 211.95833 34.284374 211.45833Q34.909374 210.95833 35.846874 210.95833Q36.534374 210.95833 37.05 211.23958Q37.58125 211.52083 37.925 212.05208Q38.26875 212.5677 38.45625 213.3177Q38.64375 214.0677 38.64375 215.34895Q38.64375 216.86458 38.33125 217.78645Q38.034374 218.70833 37.409374 219.22395Q36.8 219.72395 35.846874 219.72395Q34.6125 219.72395 33.89375 218.83333Q33.05 217.77083 33.05 215.34895ZM34.128124 215.34895Q34.128124 217.45833 34.628124 218.16145Q35.128124 218.86458 35.846874 218.86458Q36.58125 218.86458 37.065624 218.16145Q37.565624 217.45833 37.565624 215.34895Q37.565624 213.22395 37.065624 212.53645Q36.58125 211.83333 35.83125 211.83333Q35.1125 211.83333 34.675 212.4427Q34.128124 213.22395 34.128124 215.34895Z" fill-rule="nonzero"/><path fill="#000000" d="M19.05 174.88437L20.1125 174.74374Q20.284374 175.63437 20.721874 176.04062Q21.159374 176.43124 21.784374 176.43124Q22.534374 176.43124 23.05 175.91562Q23.565624 175.4 23.565624 174.63437Q23.565624 173.91562 23.08125 173.44687Q22.6125 172.9625 21.878124 172.9625Q21.58125 172.9625 21.128124 173.0875L21.253124 172.15Q21.3625 172.16562 21.425 172.16562Q22.096874 172.16562 22.628124 171.82187Q23.175 171.4625 23.175 170.72812Q23.175 170.15 22.784374 169.775Q22.39375 169.38437 21.76875 169.38437Q21.159374 169.38437 20.7375 169.775Q20.33125 170.16562 20.221874 170.93124L19.159374 170.74374Q19.346874 169.69687 20.034374 169.11874Q20.721874 168.525 21.7375 168.525Q22.440624 168.525 23.034374 168.8375Q23.628124 169.13437 23.940624 169.65Q24.253124 170.16562 24.253124 170.75937Q24.253124 171.30624 23.95625 171.775Q23.659374 172.22812 23.08125 172.49374Q23.83125 172.66562 24.253124 173.22812Q24.675 173.775 24.675 174.61874Q24.675 175.74374 23.846874 176.525Q23.034374 177.30624 21.784374 177.30624Q20.659374 177.30624 19.909374 176.63437Q19.159374 175.94687 19.05 174.88437ZM26.05 172.91562Q26.05 171.38437 26.3625 170.4625Q26.675 169.525 27.284374 169.025Q27.909374 168.525 28.846874 168.525Q29.534374 168.525 30.05 168.80624Q30.58125 169.0875 30.925 169.61874Q31.26875 170.13437 31.45625 170.88437Q31.64375 171.63437 31.64375 172.91562Q31.64375 174.43124 31.33125 175.35312Q31.034374 176.275 30.409374 176.79062Q29.8 177.29062 28.846874 177.29062Q27.6125 177.29062 26.89375 176.4Q26.05 175.3375 26.05 172.91562ZM27.128124 172.91562Q27.128124 175.025 27.628124 175.72812Q28.128124 176.43124 28.846874 176.43124Q29.58125 176.43124 30.065624 175.72812Q30.565624 175.025 30.565624 172.91562Q30.565624 170.79062 30.065624 170.10312Q29.58125 169.4 28.83125 169.4Q28.1125 169.4 27.675 170.00937Q27.128124 170.79062 27.128124 172.91562ZM33.05 172.91562Q33.05 171.38437 33.3625 170.4625Q33.675 169.525 34.284374 169.025Q34.909374 168.525 35.846874 168.525Q36.534374 168.525 37.05 168.80624Q37.58125 169.0875 37.925 169.61874Q38.26875 170.13437 38.45625 170.88437Q38.64375 171.63437 38.64375 172.91562Q38.64375 174.43124 38.33125 175.35312Q38.034374 176.275 37.409374 176.79062Q36.8 177.29062 35.846874 177.29062Q34.6125 177.29062 33.89375 176.4Q33.05 175.3375 33.05 172.91562ZM34.128124 172.91562Q34.128124 175.025 34.628124 175.72812Q35.128124 176.43124 35.846874 176.43124Q36.58125 176.43124 37.065624 175.72812Q37.565624 175.025 37.565624 172.91562Q37.565624 170.79062 37.065624 170.10312Q36.58125 169.4 35.83125 169.4Q35.1125 169.4 34.675 170.00937Q34.128124 170.79062 34.128124 172.91562Z" fill-rule="nonzero"/><path fill="#000000" d="M22.425 134.71666L22.425 132.65416L18.70625 132.65416L18.70625 131.68541L22.628124 126.12291L23.4875 126.12291L23.4875 131.68541L24.64375 131.68541L24.64375 132.65416L23.4875 132.65416L23.4875 134.71666L22.425 134.71666ZM22.425 131.68541L22.425 127.826035L19.7375 131.68541L22.425 131.68541ZM26.05 130.48228Q26.05 128.95103 26.3625 128.02916Q26.675 127.09166 27.284374 126.59166Q27.909374 126.09166 28.846874 126.09166Q29.534374 126.09166 30.05 126.37291Q30.58125 126.65416 30.925 127.18541Q31.26875 127.701035 31.45625 128.45103Q31.64375 129.20103 31.64375 130.48228Q31.64375 131.99791 31.33125 132.91978Q31.034374 133.84166 30.409374 134.35728Q29.8 134.85728 28.846874 134.85728Q27.6125 134.85728 26.89375 133.96666Q26.05 132.90416 26.05 130.48228ZM27.128124 130.48228Q27.128124 132.59166 27.628124 133.29478Q28.128124 133.99791 28.846874 133.99791Q29.58125 133.99791 30.065624 133.29478Q30.565624 132.59166 30.565624 130.48228Q30.565624 128.35728 30.065624 127.669785Q29.58125 126.96666 28.83125 126.96666Q28.1125 126.96666 27.675 127.576035Q27.128124 128.35728 27.128124 130.48228ZM33.05 130.48228Q33.05 128.95103 33.3625 128.02916Q33.675 127.09166 34.284374 126.59166Q34.909374 126.09166 35.846874 126.09166Q36.534374 126.09166 37.05 126.37291Q37.58125 126.65416 37.925 127.18541Q38.26875 127.701035 38.45625 128.45103Q38.64375 129.20103 38.64375 130.48228Q38.64375 131.99791 38.33125 132.91978Q38.034374 133.84166 37.409374 134.35728Q36.8 134.85728 35.846874 134.85728Q34.6125 134.85728 33.89375 133.96666Q33.05 132.90416 33.05 130.48228ZM34.128124 130.48228Q34.128124 132.59166 34.628124 133.29478Q35.128124 133.99791 35.846874 133.99791Q36.58125 133.99791 37.065624 133.29478Q37.565624 132.59166 37.565624 130.48228Q37.565624 128.35728 37.065624 127.669785Q36.58125 126.96666 35.83125 126.96666Q35.1125 126.96666 34.675 127.576035Q34.128124 128.35728 34.128124 130.48228Z" fill-rule="nonzero"/><path fill="#000000" d="M19.05 90.03333L20.159374 89.93958Q20.284374 90.75208 20.721874 91.15833Q21.175 91.56458 21.815624 91.56458Q22.565624 91.56458 23.096874 90.98646Q23.628124 90.40833 23.628124 89.47083Q23.628124 88.56458 23.1125 88.04896Q22.6125 87.51771 21.784374 87.51771Q21.284374 87.51771 20.8625 87.75208Q20.45625 87.98646 20.221874 88.34583L19.2375 88.22083L20.065624 83.81458L24.346874 83.81458L24.346874 84.81458L20.909374 84.81458L20.45625 87.12708Q21.221874 86.58021 22.065624 86.58021Q23.190624 86.58021 23.95625 87.36146Q24.7375 88.14271 24.7375 89.37708Q24.7375 90.53333 24.065624 91.39271Q23.2375 92.42396 21.815624 92.42396Q20.64375 92.42396 19.89375 91.76771Q19.159374 91.11146 19.05 90.03333ZM26.05 88.04896Q26.05 86.51771 26.3625 85.59583Q26.675 84.65833 27.284374 84.15833Q27.909374 83.65833 28.846874 83.65833Q29.534374 83.65833 30.05 83.93958Q30.58125 84.22083 30.925 84.75208Q31.26875 85.26771 31.45625 86.01771Q31.64375 86.76771 31.64375 88.04896Q31.64375 89.56458 31.33125 90.48646Q31.034374 91.40833 30.409374 91.92396Q29.8 92.42396 28.846874 92.42396Q27.6125 92.42396 26.89375 91.53333Q26.05 90.47083 26.05 88.04896ZM27.128124 88.04896Q27.128124 90.15833 27.628124 90.86146Q28.128124 91.56458 28.846874 91.56458Q29.58125 91.56458 30.065624 90.86146Q30.565624 90.15833 30.565624 88.04896Q30.565624 85.92396 30.065624 85.23646Q29.58125 84.53333 28.83125 84.53333Q28.1125 84.53333 27.675 85.14271Q27.128124 85.92396 27.128124 88.04896ZM33.05 88.04896Q33.05 86.51771 33.3625 85.59583Q33.675 84.65833 34.284374 84.15833Q34.909374 83.65833 35.846874 83.65833Q36.534374 83.65833 37.05 83.93958Q37.58125 84.22083 37.925 84.75208Q38.26875 85.26771 38.45625 86.01771Q38.64375 86.76771 38.64375 88.04896Q38.64375 89.56458 38.33125 90.48646Q38.034374 91.40833 37.409374 91.92396Q36.8 92.42396 35.846874 92.42396Q34.6125 92.42396 33.89375 91.53333Q33.05 90.47083 33.05 88.04896ZM34.128124 88.04896Q34.128124 90.15833 34.628124 90.86146Q35.128124 91.56458 35.846874 91.56458Q36.58125 91.56458 37.065624 90.86146Q37.565624 90.15833 37.565624 88.04896Q37.565624 85.92396 37.065624 85.23646Q36.58125 84.53333 35.83125 84.53333Q35.1125 84.53333 34.675 85.14271Q34.128124 85.92396 34.128124 88.04896Z" fill-rule="nonzero"/><path fill="#000000" d="M103.4845 317.45L102.43762 317.45L102.43762 310.73126Q102.047 311.09064 101.422 311.46564Q100.81262 311.825 100.32825 311.9969L100.32825 310.98126Q101.20325 310.5594 101.8595 309.98126Q102.53137 309.3875 102.81262 308.825L103.4845 308.825L103.4845 317.45Z" fill-rule="nonzero"/><path fill="#000000" d="M189.45633 316.4344L189.45633 317.45L183.76883 317.45Q183.76883 317.075 183.89383 316.71564Q184.11258 316.1375 184.58133 315.575Q185.0657 315.0125 185.97195 314.27814Q187.3782 313.1219 187.86258 312.45Q188.36258 311.77814 188.36258 311.1844Q188.36258 310.5594 187.90945 310.1375Q187.45633 309.7 186.73758 309.7Q185.97195 309.7 185.51883 310.15314Q185.0657 310.60626 185.05008 311.41876L183.97195 311.3094Q184.08133 310.09064 184.80008 309.46564Q185.53445 308.825 186.76883 308.825Q188.0032 308.825 188.72195 309.5125Q189.4407 310.2 189.4407 311.21564Q189.4407 311.73126 189.22195 312.23126Q189.01883 312.71564 188.51883 313.27814Q188.03445 313.825 186.90945 314.77814Q185.95633 315.575 185.67508 315.8719Q185.40945 316.15314 185.23758 316.4344L189.45633 316.4344Z" fill-rule="nonzero"/><path fill="#000000" d="M271.67816 317.45L271.67816 315.3875L267.9594 315.3875L267.9594 314.41876L271.8813 308.85626L272.74066 308.85626L272.74066 314.41876L273.8969 314.41876L273.8969 315.3875L272.74066 315.3875L272.74066 317.45L271.67816 317.45ZM271.67816 314.41876L271.67816 310.5594L268.99066 314.41876L271.67816 314.41876Z" fill-rule="nonzero"/><path fill="#000000" d="M354.32184 312.79376Q353.6656 312.54376 353.33746 312.10626Q353.02496 311.65314 353.02496 311.04376Q353.02496 310.10626 353.69684 309.46564Q354.38434 308.825 355.4937 308.825Q356.6187 308.825 357.3062 309.48126Q357.9937 310.1375 357.9937 311.075Q357.9937 311.66876 357.6812 312.10626Q357.3687 312.54376 356.7281 312.79376Q357.52496 313.04376 357.9312 313.6219Q358.33746 314.2 358.33746 314.9969Q358.33746 316.09064 357.5562 316.84064Q356.7906 317.59064 355.50934 317.59064Q354.2437 317.59064 353.46246 316.84064Q352.6812 316.09064 352.6812 314.96564Q352.6812 314.1219 353.1031 313.5594Q353.5406 312.9969 354.32184 312.79376ZM354.1031 310.9969Q354.1031 311.60626 354.4937 311.9969Q354.89996 312.3875 355.52496 312.3875Q356.13434 312.3875 356.52496 312.0125Q356.9156 311.6219 356.9156 311.0594Q356.9156 310.48126 356.50934 310.09064Q356.1031 309.6844 355.50934 309.6844Q354.89996 309.6844 354.4937 310.075Q354.1031 310.46564 354.1031 310.9969ZM353.77496 314.96564Q353.77496 315.41876 353.9781 315.84064Q354.19684 316.2625 354.6187 316.4969Q355.0406 316.73126 355.52496 316.73126Q356.27496 316.73126 356.75934 316.2469Q357.25934 315.7625 357.25934 315.0125Q357.25934 314.2469 356.75934 313.7469Q356.25934 313.2469 355.4937 313.2469Q354.7437 313.2469 354.25934 313.7469Q353.77496 314.23126 353.77496 314.96564Z" fill-rule="nonzero"/><path fill="#000000" d="M437.5593 317.45L436.51242 317.45L436.51242 310.73126Q436.1218 311.09064 435.4968 311.46564Q434.88742 311.825 434.40305 311.9969L434.40305 310.98126Q435.27805 310.5594 435.9343 309.98126Q436.60617 309.3875 436.88742 308.825L437.5593 308.825L437.5593 317.45ZM446.0593 310.96564L445.01242 311.04376Q444.8718 310.41876 444.6218 310.1375Q444.1843 309.6844 443.5593 309.6844Q443.0593 309.6844 442.66867 309.96564Q442.1843 310.34064 441.88742 311.04376Q441.60617 311.73126 441.59055 313.0125Q441.96555 312.4344 442.51242 312.15314Q443.07492 311.8719 443.6843 311.8719Q444.73117 311.8719 445.46555 312.65314Q446.21555 313.4344 446.21555 314.65314Q446.21555 315.46564 445.85617 316.16876Q445.51242 316.85626 444.90305 317.23126Q444.29367 317.59064 443.52805 317.59064Q442.19992 317.59064 441.3718 316.6219Q440.54367 315.65314 440.54367 313.4344Q440.54367 310.9344 441.46555 309.8094Q442.26242 308.825 443.6218 308.825Q444.63742 308.825 445.27805 309.40314Q445.9343 309.96564 446.0593 310.96564ZM441.76242 314.66876Q441.76242 315.21564 441.98117 315.71564Q442.21555 316.2 442.6218 316.46564Q443.04367 316.73126 443.51242 316.73126Q444.16867 316.73126 444.65305 316.2Q445.13742 315.65314 445.13742 314.73126Q445.13742 313.84064 444.65305 313.325Q444.1843 312.8094 443.46555 312.8094Q442.7468 312.8094 442.2468 313.325Q441.76242 313.84064 441.76242 314.66876Z" fill-rule="nonzero"/><path fill="#000000" d="M517.98425 315.1844L519.04675 315.04376Q519.2186 315.9344 519.6561 316.34064Q520.0936 316.73126 520.7186 316.73126Q521.4686 316.73126 521.98425 316.21564Q522.4999 315.7 522.4999 314.9344Q522.4999 314.21564 522.0155 313.7469Q521.54675 313.2625 520.8124 313.2625Q520.5155 313.2625 520.0624 313.3875L520.1874 312.45Q520.29675 312.46564 520.35925 312.46564Q521.0311 312.46564 521.5624 312.1219Q522.10925 311.7625 522.10925 311.02814Q522.10925 310.45 521.7186 310.075Q521.328 309.6844 520.703 309.6844Q520.0936 309.6844 519.67175 310.075Q519.2655 310.46564 519.1561 311.23126L518.0936 311.04376Q518.2811 309.9969 518.9686 309.41876Q519.6561 308.825 520.67175 308.825Q521.3749 308.825 521.9686 309.1375Q522.5624 309.4344 522.8749 309.95Q523.1874 310.46564 523.1874 311.0594Q523.1874 311.60626 522.8905 312.075Q522.5936 312.52814 522.0155 312.79376Q522.7655 312.96564 523.1874 313.52814Q523.60925 314.075 523.60925 314.91876Q523.60925 316.04376 522.7811 316.825Q521.9686 317.60626 520.7186 317.60626Q519.5936 317.60626 518.8436 316.9344Q518.0936 316.2469 517.98425 315.1844ZM530.5311 316.4344L530.5311 317.45L524.8436 317.45Q524.8436 317.075 524.9686 316.71564Q525.1874 316.1375 525.6561 315.575Q526.1405 315.0125 527.04675 314.27814Q528.453 313.1219 528.9374 312.45Q529.4374 311.77814 529.4374 311.1844Q529.4374 310.5594 528.98425 310.1375Q528.5311 309.7 527.8124 309.7Q527.04675 309.7 526.5936 310.15314Q526.1405 310.60626 526.1249 311.41876L525.04675 311.3094Q525.1561 310.09064 525.8749 309.46564Q526.60925 308.825 527.8436 308.825Q529.078 308.825 529.79675 309.5125Q530.5155 310.2 530.5155 311.21564Q530.5155 311.73126 530.29675 312.23126Q530.0936 312.71564 529.5936 313.27814Q529.10925 313.825 527.98425 314.77814Q527.0311 315.575 526.7499 315.8719Q526.48425 316.15314 526.3124 316.4344L530.5311 316.4344Z" fill-rule="nonzero"/><path fill="#93c47d" d="M225.0 56.916668C225.0 56.364384 225.44771 55.916668 226.0 55.916668L236.0 55.916668C236.55229 55.916668 237.0 56.364384 237.0 56.916668L237.0 66.916664C237.0 67.46895 236.55229 67.916664 236.0 67.916664L226.0 67.916664C225.44771 67.916664 225.0 67.46895 225.0 66.916664Z" fill-rule="nonzero"/><path fill="#1a1a1a" d="M244.98438 65.916664L248.28125 57.322914L249.5 57.322914L253.01562 65.916664L251.73438 65.916664L250.71875 63.30729L247.14062 63.30729L246.1875 65.916664L244.98438 65.916664ZM247.46875 62.385414L250.375 62.385414L249.48438 60.010414Q249.0625 58.93229 248.875 58.229164Q248.70312 59.05729 248.40625 59.86979L247.46875 62.385414ZM256.85938 63.635414L257.89062 63.77604Q257.71875 64.83854 257.01562 65.447914Q256.3125 66.05729 255.29688 66.05729Q254.01562 66.05729 253.23438 65.229164Q252.46875 64.385414 252.46875 62.822914Q252.46875 61.822914 252.79688 61.072914Q253.14062 60.30729 253.8125 59.93229Q254.5 59.55729 255.3125 59.55729Q256.3125 59.55729 256.95312 60.072914Q257.60938 60.572914 257.79688 61.52604L256.76562 61.68229Q256.625 61.05729 256.25 60.74479Q255.875 60.416664 255.34375 60.416664Q254.54688 60.416664 254.04688 60.99479Q253.54688 61.55729 253.54688 62.791664Q253.54688 64.05729 254.03125 64.61979Q254.51562 65.18229 255.28125 65.18229Q255.90625 65.18229 256.3125 64.80729Q256.73438 64.43229 256.85938 63.635414ZM261.09375 64.979164L261.25 65.90104Q260.79688 65.99479 260.45312 65.99479Q259.875 65.99479 259.5625 65.822914Q259.25 65.635414 259.10938 65.33854Q258.98438 65.041664 258.98438 64.08854L258.98438 60.510414L258.21875 60.510414L258.21875 59.697914L258.98438 59.697914L258.98438 58.15104L260.03125 57.52604L260.03125 59.697914L261.09375 59.697914L261.09375 60.510414L260.03125 60.510414L260.03125 64.15104Q260.03125 64.604164 260.07812 64.729164Q260.14062 64.854164 260.26562 64.93229Q260.39062 65.010414 260.625 65.010414Q260.8125 65.010414 261.09375 64.979164ZM265.875 65.916664L265.875 64.99479Q265.14062 66.05729 263.89062 66.05729Q263.34375 66.05729 262.85938 65.854164Q262.39062 65.635414 262.15625 65.322914Q261.92188 64.99479 261.82812 64.52604Q261.76562 64.229164 261.76562 63.541664L261.76562 59.697914L262.82812 59.697914L262.82812 63.15104Q262.82812 63.96354 262.89062 64.260414Q262.98438 64.666664 263.29688 64.916664Q263.625 65.15104 264.10938 65.15104Q264.57812 65.15104 264.98438 64.916664Q265.40625 64.666664 265.57812 64.24479Q265.76562 63.822914 265.76562 63.02604L265.76562 59.697914L266.8125 59.697914L266.8125 65.916664L265.875 65.916664ZM272.85938 65.15104Q272.26562 65.65104 271.71875 65.854164Q271.1875 66.05729 270.5625 66.05729Q269.53125 66.05729 268.98438 65.55729Q268.4375 65.05729 268.4375 64.27604Q268.4375 63.822914 268.64062 63.447914Q268.84375 63.05729 269.1875 62.83854Q269.53125 62.604164 269.95312 62.49479Q270.25 62.40104 270.89062 62.322914Q272.15625 62.18229 272.76562 61.96354Q272.76562 61.74479 272.76562 61.697914Q272.76562 61.041664 272.46875 60.77604Q272.0625 60.43229 271.26562 60.43229Q270.53125 60.43229 270.17188 60.697914Q269.8125 60.947914 269.64062 61.604164L268.60938 61.46354Q268.75 60.80729 269.07812 60.40104Q269.40625 59.99479 270.01562 59.77604Q270.625 59.55729 271.42188 59.55729Q272.21875 59.55729 272.71875 59.74479Q273.21875 59.93229 273.45312 60.21354Q273.6875 60.49479 273.78125 60.93229Q273.82812 61.197914 273.82812 61.90104L273.82812 63.30729Q273.82812 64.77604 273.89062 65.166664Q273.96875 65.55729 274.17188 65.916664L273.0625 65.916664Q272.90625 65.58854 272.85938 65.15104ZM272.76562 62.791664Q272.1875 63.02604 271.04688 63.197914Q270.39062 63.291664 270.125 63.416664Q269.85938 63.52604 269.70312 63.74479Q269.5625 63.96354 269.5625 64.24479Q269.5625 64.666664 269.875 64.947914Q270.20312 65.229164 270.8125 65.229164Q271.42188 65.229164 271.89062 64.96354Q272.375 64.697914 272.59375 64.229164Q272.76562 63.86979 272.76562 63.18229L272.76562 62.791664ZM275.76562 65.916664L275.76562 57.322914L276.82812 57.322914L276.82812 65.916664L275.76562 65.916664Z" fill-rule="nonzero"/><path fill="#ffd966" d="M294.0 56.916668C294.0 56.364384 294.44772 55.916668 295.0 55.916668L305.0 55.916668C305.55228 55.916668 306.0 56.364384 306.0 56.916668L306.0 66.916664C306.0 67.46895 305.55228 67.916664 305.0 67.916664L295.0 67.916664C294.44772 67.916664 294.0 67.46895 294.0 66.916664Z" fill-rule="nonzero"/><path fill="#1a1a1a" d="M317.10938 65.916664L317.10938 58.33854L314.28125 58.33854L314.28125 57.322914L321.09375 57.322914L321.09375 58.33854L318.25 58.33854L318.25 65.916664L317.10938 65.916664ZM321.79688 65.916664L321.79688 57.322914L322.84375 57.322914L322.84375 60.40104Q323.57812 59.55729 324.70312 59.55729Q325.40625 59.55729 325.90625 59.83854Q326.42188 60.104164 326.64062 60.58854Q326.85938 61.05729 326.85938 61.979164L326.85938 65.916664L325.8125 65.916664L325.8125 61.979164Q325.8125 61.18229 325.46875 60.822914Q325.125 60.46354 324.5 60.46354Q324.03125 60.46354 323.60938 60.71354Q323.20312 60.947914 323.01562 61.36979Q322.84375 61.77604 322.84375 62.510414L322.84375 65.916664L321.79688 65.916664ZM333.04688 63.916664L334.14062 64.041664Q333.89062 64.99479 333.1875 65.52604Q332.48438 66.05729 331.40625 66.05729Q330.04688 66.05729 329.23438 65.21354Q328.4375 64.36979 328.4375 62.854164Q328.4375 61.291664 329.25 60.43229Q330.0625 59.55729 331.34375 59.55729Q332.59375 59.55729 333.375 60.40104Q334.17188 61.24479 334.17188 62.791664Q334.17188 62.885414 334.17188 63.072914L329.53125 63.072914Q329.59375 64.104164 330.10938 64.65104Q330.625 65.18229 331.40625 65.18229Q331.98438 65.18229 332.39062 64.885414Q332.8125 64.572914 333.04688 63.916664ZM329.59375 62.21354L333.0625 62.21354Q333.0 61.416664 332.67188 61.02604Q332.15625 60.416664 331.35938 60.416664Q330.625 60.416664 330.125 60.90104Q329.64062 61.385414 329.59375 62.21354ZM335.40625 62.80729Q335.40625 61.072914 336.35938 60.24479Q337.15625 59.55729 338.3125 59.55729Q339.59375 59.55729 340.40625 60.40104Q341.23438 61.229164 341.23438 62.71354Q341.23438 63.916664 340.875 64.604164Q340.51562 65.291664 339.8125 65.68229Q339.125 66.05729 338.3125 66.05729Q337.01562 66.05729 336.20312 65.229164Q335.40625 64.385414 335.40625 62.80729ZM336.48438 62.80729Q336.48438 63.99479 337.0 64.58854Q337.53125 65.18229 338.3125 65.18229Q339.10938 65.18229 339.625 64.58854Q340.14062 63.99479 340.14062 62.77604Q340.14062 61.61979 339.60938 61.02604Q339.09375 60.43229 338.3125 60.43229Q337.53125 60.43229 337.0 61.02604Q336.48438 61.604164 336.48438 62.80729ZM342.78125 65.916664L342.78125 59.697914L343.73438 59.697914L343.73438 60.635414Q344.09375 59.979164 344.39062 59.77604Q344.70312 59.55729 345.07812 59.55729Q345.60938 59.55729 346.15625 59.885414L345.79688 60.86979Q345.40625 60.635414 345.03125 60.635414Q344.67188 60.635414 344.39062 60.854164Q344.125 61.05729 344.01562 61.43229Q343.82812 61.99479 343.82812 62.65104L343.82812 65.916664L342.78125 65.916664ZM351.04688 63.916664L352.14062 64.041664Q351.89062 64.99479 351.1875 65.52604Q350.48438 66.05729 349.40625 66.05729Q348.04688 66.05729 347.23438 65.21354Q346.4375 64.36979 346.4375 62.854164Q346.4375 61.291664 347.25 60.43229Q348.0625 59.55729 349.34375 59.55729Q350.59375 59.55729 351.375 60.40104Q352.17188 61.24479 352.17188 62.791664Q352.17188 62.885414 352.17188 63.072914L347.53125 63.072914Q347.59375 64.104164 348.10938 64.65104Q348.625 65.18229 349.40625 65.18229Q349.98438 65.18229 350.39062 64.885414Q350.8125 64.572914 351.04688 63.916664ZM347.59375 62.21354L351.0625 62.21354Q351.0 61.416664 350.67188 61.02604Q350.15625 60.416664 349.35938 60.416664Q348.625 60.416664 348.125 60.90104Q347.64062 61.385414 347.59375 62.21354ZM356.09375 64.979164L356.25 65.90104Q355.79688 65.99479 355.45312 65.99479Q354.875 65.99479 354.5625 65.822914Q354.25 65.635414 354.10938 65.33854Q353.98438 65.041664 353.98438 64.08854L353.98438 60.510414L353.21875 60.510414L353.21875 59.697914L353.98438 59.697914L353.98438 58.15104L355.03125 57.52604L355.03125 59.697914L356.09375 59.697914L356.09375 60.510414L355.03125 60.510414L355.03125 64.15104Q355.03125 64.604164 355.07812 64.729164Q355.14062 64.854164 355.26562 64.93229Q355.39062 65.010414 355.625 65.010414Q355.8125 65.010414 356.09375 64.979164ZM356.79688 58.541664L356.79688 57.322914L357.85938 57.322914L357.85938 58.541664L356.79688 58.541664ZM356.79688 65.916664L356.79688 59.697914L357.85938 59.697914L357.85938 65.916664L356.79688 65.916664ZM363.85938 63.635414L364.89062 63.77604Q364.71875 64.83854 364.01562 65.447914Q363.3125 66.05729 362.29688 66.05729Q361.01562 66.05729 360.23438 65.229164Q359.46875 64.385414 359.46875 62.822914Q359.46875 61.822914 359.79688 61.072914Q360.14062 60.30729 360.8125 59.93229Q361.5 59.55729 362.3125 59.55729Q363.3125 59.55729 363.95312 60.072914Q364.60938 60.572914 364.79688 61.52604L363.76562 61.68229Q363.625 61.05729 363.25 60.74479Q362.875 60.416664 362.34375 60.416664Q361.54688 60.416664 361.04688 60.99479Q360.54688 61.55729 360.54688 62.791664Q360.54688 64.05729 361.03125 64.61979Q361.51562 65.18229 362.28125 65.18229Q362.90625 65.18229 363.3125 64.80729Q363.73438 64.43229 363.85938 63.635414ZM369.85938 65.15104Q369.26562 65.65104 368.71875 65.854164Q368.1875 66.05729 367.5625 66.05729Q366.53125 66.05729 365.98438 65.55729Q365.4375 65.05729 365.4375 64.27604Q365.4375 63.822914 365.64062 63.447914Q365.84375 63.05729 366.1875 62.83854Q366.53125 62.604164 366.95312 62.49479Q367.25 62.40104 367.89062 62.322914Q369.15625 62.18229 369.76562 61.96354Q369.76562 61.74479 369.76562 61.697914Q369.76562 61.041664 369.46875 60.77604Q369.0625 60.43229 368.26562 60.43229Q367.53125 60.43229 367.17188 60.697914Q366.8125 60.947914 366.64062 61.604164L365.60938 61.46354Q365.75 60.80729 366.07812 60.40104Q366.40625 59.99479 367.01562 59.77604Q367.625 59.55729 368.42188 59.55729Q369.21875 59.55729 369.71875 59.74479Q370.21875 59.93229 370.45312 60.21354Q370.6875 60.49479 370.78125 60.93229Q370.82812 61.197914 370.82812 61.90104L370.82812 63.30729Q370.82812 64.77604 370.89062 65.166664Q370.96875 65.55729 371.17188 65.916664L370.0625 65.916664Q369.90625 65.58854 369.85938 65.15104ZM369.76562 62.791664Q369.1875 63.02604 368.04688 63.197914Q367.39062 63.291664 367.125 63.416664Q366.85938 63.52604 366.70312 63.74479Q366.5625 63.96354 366.5625 64.24479Q366.5625 64.666664 366.875 64.947914Q367.20312 65.229164 367.8125 65.229164Q368.42188 65.229164 368.89062 64.96354Q369.375 64.697914 369.59375 64.229164Q369.76562 63.86979 369.76562 63.18229L369.76562 62.791664ZM372.76562 65.916664L372.76562 57.322914L373.82812 57.322914L373.82812 65.916664L372.76562 65.916664Z" fill-rule="nonzero"/><path fill="#757575" d="M18.51875 37.55L24.01875 23.2375L26.065624 23.2375L31.925 37.55L29.76875 37.55L28.096874 33.20625L22.1125 33.20625L20.534374 37.55L18.51875 37.55ZM22.659374 31.675L27.503124 31.675L26.01875 27.70625Q25.33125 25.89375 25.003124 24.7375Q24.721874 26.1125 24.221874 27.471874L22.659374 31.675ZM39.64375 33.753124L41.3625 33.971874Q41.08125 35.76875 39.909374 36.784374Q38.753124 37.784374 37.05 37.784374Q34.925 37.784374 33.628124 36.39375Q32.33125 35.003124 32.33125 32.409374Q32.33125 30.721874 32.878124 29.471874Q33.440624 28.20625 34.58125 27.58125Q35.721874 26.940624 37.065624 26.940624Q38.753124 26.940624 39.815624 27.8Q40.89375 28.659374 41.20625 30.221874L39.4875 30.4875Q39.253124 29.440624 38.628124 28.925Q38.003124 28.39375 37.128124 28.39375Q35.8 28.39375 34.971874 29.346874Q34.14375 30.3 34.14375 32.346874Q34.14375 34.440624 34.940624 35.39375Q35.7375 36.33125 37.034374 36.33125Q38.065624 36.33125 38.753124 35.70625Q39.45625 35.065624 39.64375 33.753124ZM46.70625 35.971874L46.95625 37.534374Q46.221874 37.690624 45.628124 37.690624Q44.675 37.690624 44.14375 37.39375Q43.628124 37.08125 43.409374 36.596874Q43.190624 36.096874 43.190624 34.51875L43.190624 28.55L41.909374 28.55L41.909374 27.175L43.190624 27.175L43.190624 24.6125L44.940624 23.55L44.940624 27.175L46.70625 27.175L46.70625 28.55L44.940624 28.55L44.940624 34.6125Q44.940624 35.3625 45.034374 35.58125Q45.128124 35.784374 45.33125 35.925Q45.55 36.05 45.940624 36.05Q46.221874 36.05 46.70625 35.971874ZM55.659374 37.55L55.659374 36.01875Q54.45625 37.784374 52.378124 37.784374Q51.45625 37.784374 50.659374 37.440624Q49.8625 37.08125 49.471874 36.55Q49.096874 36.01875 48.940624 35.2375Q48.83125 34.721874 48.83125 33.596874L48.83125 27.175L50.58125 27.175L50.58125 32.925Q50.58125 34.3 50.690624 34.784374Q50.8625 35.471874 51.39375 35.878124Q51.940624 36.26875 52.721874 36.26875Q53.51875 36.26875 54.20625 35.8625Q54.909374 35.45625 55.190624 34.76875Q55.4875 34.065624 55.4875 32.7375L55.4875 27.175L57.2375 27.175L57.2375 37.55L55.659374 37.55ZM65.64375 36.26875Q64.65938 37.096874 63.753124 37.440624Q62.846874 37.784374 61.815624 37.784374Q60.1125 37.784374 59.190624 36.95625Q58.26875 36.1125 58.26875 34.815624Q58.26875 34.05 58.6125 33.425Q58.971874 32.8 59.534374 32.425Q60.096874 32.034374 60.8 31.83125Q61.315624 31.70625 62.3625 31.565624Q64.4875 31.315624 65.4875 30.971874Q65.50313 30.6125 65.50313 30.503124Q65.50313 29.440624 65.00313 28.9875Q64.33125 28.39375 63.003124 28.39375Q61.753124 28.39375 61.159374 28.83125Q60.58125 29.26875 60.3 30.378124L58.58125 30.14375Q58.815624 29.034374 59.346874 28.3625Q59.878124 27.675 60.89375 27.315624Q61.909374 26.940624 63.253124 26.940624Q64.58125 26.940624 65.40938 27.253124Q66.2375 27.565624 66.62813 28.05Q67.01875 28.51875 67.175 29.2375Q67.26875 29.690624 67.26875 30.8625L67.26875 33.20625Q67.26875 35.659374 67.37813 36.315624Q67.4875 36.95625 67.83125 37.55L65.9875 37.55Q65.72188 37.003124 65.64375 36.26875ZM65.4875 32.346874Q64.53438 32.7375 62.6125 33.003124Q61.534374 33.159374 61.08125 33.3625Q60.64375 33.55 60.39375 33.925Q60.14375 34.3 60.14375 34.76875Q60.14375 35.471874 60.675 35.940624Q61.20625 36.409374 62.2375 36.409374Q63.253124 36.409374 64.03438 35.971874Q64.83125 35.51875 65.20625 34.753124Q65.4875 34.14375 65.4875 32.9875L65.4875 32.346874ZM69.83125 37.55L69.83125 23.2375L71.58125 23.2375L71.58125 37.55L69.83125 37.55ZM86.64375 36.26875Q85.65938 37.096874 84.75313 37.440624Q83.84688 37.784374 82.81563 37.784374Q81.1125 37.784374 80.19063 36.95625Q79.26875 36.1125 79.26875 34.815624Q79.26875 34.05 79.6125 33.425Q79.97188 32.8 80.53438 32.425Q81.09688 32.034374 81.8 31.83125Q82.31563 31.70625 83.3625 31.565624Q85.4875 31.315624 86.4875 30.971874Q86.50313 30.6125 86.50313 30.503124Q86.50313 29.440624 86.00313 28.9875Q85.33125 28.39375 84.00313 28.39375Q82.75313 28.39375 82.15938 28.83125Q81.58125 29.26875 81.3 30.378124L79.58125 30.14375Q79.81563 29.034374 80.34688 28.3625Q80.87813 27.675 81.89375 27.315624Q82.90938 26.940624 84.25313 26.940624Q85.58125 26.940624 86.40938 27.253124Q87.2375 27.565624 87.62813 28.05Q88.01875 28.51875 88.175 29.2375Q88.26875 29.690624 88.26875 30.8625L88.26875 33.20625Q88.26875 35.659374 88.37813 36.315624Q88.4875 36.95625 88.83125 37.55L86.9875 37.55Q86.72188 37.003124 86.64375 36.26875ZM86.4875 32.346874Q85.53438 32.7375 83.6125 33.003124Q82.53438 33.159374 82.08125 33.3625Q81.64375 33.55 81.39375 33.925Q81.14375 34.3 81.14375 34.76875Q81.14375 35.471874 81.675 35.940624Q82.20625 36.409374 83.2375 36.409374Q84.25313 36.409374 85.03438 35.971874Q85.83125 35.51875 86.20625 34.753124Q86.4875 34.14375 86.4875 32.9875L86.4875 32.346874ZM90.8625 37.55L90.8625 27.175L92.45625 27.175L92.45625 28.659374Q93.59688 26.940624 95.75313 26.940624Q96.69063 26.940624 97.47188 27.284374Q98.26875 27.6125 98.65938 28.159374Q99.05 28.70625 99.20625 29.45625Q99.3 29.95625 99.3 31.175L99.3 37.55L97.53438 37.55L97.53438 31.2375Q97.53438 30.159374 97.33125 29.628124Q97.12813 29.096874 96.59688 28.784374Q96.08125 28.471874 95.37813 28.471874Q94.25313 28.471874 93.44063 29.190624Q92.62813 29.89375 92.62813 31.878124L92.62813 37.55L90.8625 37.55ZM107.59688 37.55L107.59688 36.2375Q106.6125 37.784374 104.69063 37.784374Q103.45625 37.784374 102.40938 37.096874Q101.37813 36.409374 100.8 35.190624Q100.2375 33.971874 100.2375 32.378124Q100.2375 30.815624 100.75313 29.55Q101.26875 28.284374 102.3 27.6125Q103.34688 26.940624 104.6125 26.940624Q105.55 26.940624 106.28438 27.346874Q107.01875 27.7375 107.4875 28.3625L107.4875 23.2375L109.22188 23.2375L109.22188 37.55L107.59688 37.55ZM102.03438 32.378124Q102.03438 34.3625 102.87813 35.346874Q103.72188 36.33125 104.8625 36.33125Q106.01875 36.33125 106.81563 35.39375Q107.62813 34.45625 107.62813 32.51875Q107.62813 30.39375 106.8 29.39375Q105.9875 28.39375 104.78438 28.39375Q103.6125 28.39375 102.81563 29.3625Q102.03438 30.315624 102.03438 32.378124ZM121.7375 37.55L121.7375 24.925L117.01875 24.925L117.01875 23.2375L128.3625 23.2375L128.3625 24.925L123.62813 24.925L123.62813 37.55L121.7375 37.55ZM129.8625 37.55L129.8625 23.2375L131.62813 23.2375L131.62813 28.3625Q132.8625 26.940624 134.7375 26.940624Q135.87813 26.940624 136.72188 27.39375Q137.58125 27.846874 137.94063 28.659374Q138.31563 29.45625 138.31563 30.971874L138.31563 37.55L136.56563 37.55L136.56563 30.971874Q136.56563 29.659374 135.9875 29.065624Q135.40938 28.45625 134.37813 28.45625Q133.59688 28.45625 132.89375 28.8625Q132.20625 29.26875 131.90938 29.971874Q131.62813 30.659374 131.62813 31.878124L131.62813 37.55L129.8625 37.55ZM146.97188 34.20625L148.78438 34.440624Q148.3625 36.01875 147.19063 36.909374Q146.03438 37.784374 144.22188 37.784374Q141.95625 37.784374 140.6125 36.39375Q139.28438 34.9875 139.28438 32.45625Q139.28438 29.83125 140.62813 28.39375Q141.97188 26.940624 144.12813 26.940624Q146.20625 26.940624 147.51875 28.3625Q148.84688 29.76875 148.84688 32.346874Q148.84688 32.503124 148.83125 32.815624L141.09688 32.815624Q141.19063 34.51875 142.06563 35.425Q142.94063 36.33125 144.2375 36.33125Q145.20625 36.33125 145.87813 35.83125Q146.56563 35.315624 146.97188 34.20625ZM141.19063 31.3625L146.9875 31.3625Q146.87813 30.065624 146.33125 29.409374Q145.4875 28.39375 144.14375 28.39375Q142.94063 28.39375 142.1125 29.20625Q141.28438 30.003124 141.19063 31.3625ZM150.22188 32.3625Q150.22188 29.4875 151.81563 28.096874Q153.15938 26.940624 155.08125 26.940624Q157.22188 26.940624 158.56563 28.346874Q159.925 29.753124 159.925 32.221874Q159.925 34.221874 159.33125 35.378124Q158.7375 36.51875 157.58125 37.159374Q156.44063 37.784374 155.08125 37.784374Q152.89375 37.784374 151.55 36.39375Q150.22188 34.9875 150.22188 32.3625ZM152.01875 32.3625Q152.01875 34.3625 152.87813 35.346874Q153.75313 36.33125 155.08125 36.33125Q156.39375 36.33125 157.25313 35.346874Q158.12813 34.346874 158.12813 32.3Q158.12813 30.378124 157.25313 29.39375Q156.37813 28.39375 155.08125 28.39375Q153.75313 28.39375 152.87813 29.39375Q152.01875 30.378124 152.01875 32.3625ZM161.84688 37.55L161.84688 27.175L163.425 27.175L163.425 28.753124Q164.03438 27.64375 164.55 27.3Q165.06563 26.940624 165.675 26.940624Q166.56563 26.940624 167.4875 27.503124L166.87813 29.14375Q166.2375 28.753124 165.59688 28.753124Q165.01875 28.753124 164.55 29.1125Q164.09688 29.45625 163.89375 30.065624Q163.6125 31.003124 163.6125 32.1125L163.6125 37.55L161.84688 37.55ZM175.97188 34.20625L177.78438 34.440624Q177.3625 36.01875 176.19063 36.909374Q175.03438 37.784374 173.22188 37.784374Q170.95625 37.784374 169.6125 36.39375Q168.28438 34.9875 168.28438 32.45625Q168.28438 29.83125 169.62813 28.39375Q170.97188 26.940624 173.12813 26.940624Q175.20625 26.940624 176.51875 28.3625Q177.84688 29.76875 177.84688 32.346874Q177.84688 32.503124 177.83125 32.815624L170.09688 32.815624Q170.19063 34.51875 171.06563 35.425Q171.94063 36.33125 173.2375 36.33125Q174.20625 36.33125 174.87813 35.83125Q175.56563 35.315624 175.97188 34.20625ZM170.19063 31.3625L175.9875 31.3625Q175.87813 30.065624 175.33125 29.409374Q174.4875 28.39375 173.14375 28.39375Q171.94063 28.39375 171.1125 29.20625Q170.28438 30.003124 170.19063 31.3625ZM183.70625 35.971874L183.95625 37.534374Q183.22188 37.690624 182.62813 37.690624Q181.675 37.690624 181.14375 37.39375Q180.62813 37.08125 180.40938 36.596874Q180.19063 36.096874 180.19063 34.51875L180.19063 28.55L178.90938 28.55L178.90938 27.175L180.19063 27.175L180.19063 24.6125L181.94063 23.55L181.94063 27.175L183.70625 27.175L183.70625 28.55L181.94063 28.55L181.94063 34.6125Q181.94063 35.3625 182.03438 35.58125Q182.12813 35.784374 182.33125 35.925Q182.55 36.05 182.94063 36.05Q183.22188 36.05 183.70625 35.971874ZM185.87813 25.253124L185.87813 23.2375L187.64375 23.2375L187.64375 25.253124L185.87813 25.253124ZM185.87813 37.55L185.87813 27.175L187.64375 27.175L187.64375 37.55L185.87813 37.55ZM196.64375 33.753124L198.3625 33.971874Q198.08125 35.76875 196.90938 36.784374Q195.75313 37.784374 194.05 37.784374Q191.925 37.784374 190.62813 36.39375Q189.33125 35.003124 189.33125 32.409374Q189.33125 30.721874 189.87813 29.471874Q190.44063 28.20625 191.58125 27.58125Q192.72188 26.940624 194.06563 26.940624Q195.75313 26.940624 196.81563 27.8Q197.89375 28.659374 198.20625 30.221874L196.4875 30.4875Q196.25313 29.440624 195.62813 28.925Q195.00313 28.39375 194.12813 28.39375Q192.8 28.39375 191.97188 29.346874Q191.14375 30.3 191.14375 32.346874Q191.14375 34.440624 191.94063 35.39375Q192.7375 36.33125 194.03438 36.33125Q195.06563 36.33125 195.75313 35.70625Q196.45625 35.065624 196.64375 33.753124ZM206.64375 36.26875Q205.65938 37.096874 204.75313 37.440624Q203.84688 37.784374 202.81563 37.784374Q201.1125 37.784374 200.19063 36.95625Q199.26875 36.1125 199.26875 34.815624Q199.26875 34.05 199.6125 33.425Q199.97188 32.8 200.53438 32.425Q201.09688 32.034374 201.8 31.83125Q202.31563 31.70625 203.3625 31.565624Q205.4875 31.315624 206.4875 30.971874Q206.50313 30.6125 206.50313 30.503124Q206.50313 29.440624 206.00313 28.9875Q205.33125 28.39375 204.00313 28.39375Q202.75313 28.39375 202.15938 28.83125Q201.58125 29.26875 201.3 30.378124L199.58125 30.14375Q199.81563 29.034374 200.34688 28.3625Q200.87813 27.675 201.89375 27.315624Q202.90938 26.940624 204.25313 26.940624Q205.58125 26.940624 206.40938 27.253124Q207.2375 27.565624 207.62813 28.05Q208.01875 28.51875 208.175 29.2375Q208.26875 29.690624 208.26875 30.8625L208.26875 33.20625Q208.26875 35.659374 208.37813 36.315624Q208.4875 36.95625 208.83125 37.55L206.9875 37.55Q206.72188 37.003124 206.64375 36.26875ZM206.4875 32.346874Q205.53438 32.7375 203.6125 33.003124Q202.53438 33.159374 202.08125 33.3625Q201.64375 33.55 201.39375 33.925Q201.14375 34.3 201.14375 34.76875Q201.14375 35.471874 201.675 35.940624Q202.20625 36.409374 203.2375 36.409374Q204.25313 36.409374 205.03438 35.971874Q205.83125 35.51875 206.20625 34.753124Q206.4875 34.14375 206.4875 32.9875L206.4875 32.346874ZM210.83125 37.55L210.83125 23.2375L212.58125 23.2375L212.58125 37.55L210.83125 37.55ZM221.01875 37.55L221.01875 23.2375L226.39375 23.2375Q228.03438 23.2375 229.01875 23.675Q230.00313 24.096874 230.56563 25.003124Q231.12813 25.909374 231.12813 26.89375Q231.12813 27.815624 230.62813 28.628124Q230.14375 29.440624 229.12813 29.925Q230.425 30.315624 231.12813 31.2375Q231.83125 32.14375 231.83125 33.39375Q231.83125 34.409374 231.39375 35.26875Q230.97188 36.128124 230.34688 36.596874Q229.72188 37.065624 228.78438 37.315624Q227.84688 37.55 226.47188 37.55L221.01875 37.55ZM222.90938 29.253124L226.00313 29.253124Q227.26875 29.253124 227.81563 29.08125Q228.53438 28.8625 228.89375 28.378124Q229.26875 27.878124 229.26875 27.1125Q229.26875 26.409374 228.925 25.8625Q228.58125 25.315624 227.94063 25.128124Q227.31563 24.925 225.76875 24.925L222.90938 24.925L222.90938 29.253124ZM222.90938 35.8625L226.47188 35.8625Q227.39375 35.8625 227.76875 35.784374Q228.425 35.675 228.8625 35.409374Q229.3 35.128124 229.58125 34.6125Q229.8625 34.08125 229.8625 33.39375Q229.8625 32.596874 229.45625 32.003124Q229.05 31.409374 228.31563 31.175Q227.58125 30.940624 226.22188 30.940624L222.90938 30.940624L222.90938 35.8625ZM240.65938 37.55L240.65938 36.01875Q239.45625 37.784374 237.37813 37.784374Q236.45625 37.784374 235.65938 37.440624Q234.8625 37.08125 234.47188 36.55Q234.09688 36.01875 233.94063 35.2375Q233.83125 34.721874 233.83125 33.596874L233.83125 27.175L235.58125 27.175L235.58125 32.925Q235.58125 34.3 235.69063 34.784374Q235.8625 35.471874 236.39375 35.878124Q236.94063 36.26875 237.72188 36.26875Q238.51875 36.26875 239.20625 35.8625Q239.90938 35.45625 240.19063 34.76875Q240.4875 34.065624 240.4875 32.7375L240.4875 27.175L242.2375 27.175L242.2375 37.55L240.65938 37.55ZM243.87813 25.253124L243.87813 23.2375L245.64375 23.2375L245.64375 25.253124L243.87813 25.253124ZM243.87813 37.55L243.87813 27.175L245.64375 27.175L245.64375 37.55L243.87813 37.55ZM247.83125 37.55L247.83125 23.2375L249.58125 23.2375L249.58125 37.55L247.83125 37.55ZM258.59686 37.55L258.59686 36.2375Q257.6125 37.784374 255.69063 37.784374Q254.45625 37.784374 253.40938 37.096874Q252.37813 36.409374 251.8 35.190624Q251.2375 33.971874 251.2375 32.378124Q251.2375 30.815624 251.75313 29.55Q252.26875 28.284374 253.3 27.6125Q254.34688 26.940624 255.6125 26.940624Q256.55 26.940624 257.28436 27.346874Q258.01874 27.7375 258.4875 28.3625L258.4875 23.2375L260.22186 23.2375L260.22186 37.55L258.59686 37.55ZM253.03438 32.378124Q253.03438 34.3625 253.87813 35.346874Q254.72188 36.33125 255.8625 36.33125Q257.01874 36.33125 257.8156 35.39375Q258.6281 34.45625 258.6281 32.51875Q258.6281 30.39375 257.8 29.39375Q256.9875 28.39375 255.78438 28.39375Q254.6125 28.39375 253.81563 29.3625Q253.03438 30.315624 253.03438 32.378124ZM272.7375 37.55L272.7375 24.925L268.01874 24.925L268.01874 23.2375L279.3625 23.2375L279.3625 24.925L274.6281 24.925L274.6281 37.55L272.7375 37.55ZM280.8781 25.253124L280.8781 23.2375L282.64374 23.2375L282.64374 25.253124L280.8781 25.253124ZM280.8781 37.55L280.8781 27.175L282.64374 27.175L282.64374 37.55L280.8781 37.55ZM284.8625 37.55L284.8625 27.175L286.4406 27.175L286.4406 28.628124Q286.925 27.878124 287.7375 27.409374Q288.55 26.940624 289.58124 26.940624Q290.7375 26.940624 291.47186 27.425Q292.20624 27.89375 292.51874 28.753124Q293.7531 26.940624 295.72186 26.940624Q297.26874 26.940624 298.09686 27.8Q298.925 28.659374 298.925 30.425L298.925 37.55L297.175 37.55L297.175 31.01875Q297.175 29.95625 297.0031 29.503124Q296.83124 29.034374 296.3781 28.753124Q295.9406 28.471874 295.33124 28.471874Q294.2375 28.471874 293.5031 29.20625Q292.78436 29.925 292.78436 31.51875L292.78436 37.55L291.03436 37.55L291.03436 30.815624Q291.03436 29.64375 290.59686 29.065624Q290.175 28.471874 289.1906 28.471874Q288.45624 28.471874 287.8156 28.8625Q287.1906 29.253124 286.90936 30.003124Q286.6281 30.753124 286.6281 32.175L286.6281 37.55L284.8625 37.55ZM307.97186 34.20625L309.78436 34.440624Q309.3625 36.01875 308.1906 36.909374Q307.03436 37.784374 305.22186 37.784374Q302.95624 37.784374 301.6125 36.39375Q300.28436 34.9875 300.28436 32.45625Q300.28436 29.83125 301.6281 28.39375Q302.97186 26.940624 305.1281 26.940624Q307.20624 26.940624 308.51874 28.3625Q309.84686 29.76875 309.84686 32.346874Q309.84686 32.503124 309.83124 32.815624L302.09686 32.815624Q302.1906 34.51875 303.0656 35.425Q303.9406 36.33125 305.2375 36.33125Q306.20624 36.33125 306.8781 35.83125Q307.5656 35.315624 307.97186 34.20625ZM302.1906 31.3625L307.9875 31.3625Q307.8781 30.065624 307.33124 29.409374Q306.4875 28.39375 305.14374 28.39375Q303.9406 28.39375 303.1125 29.20625Q302.28436 30.003124 302.1906 31.3625ZM311.15936 34.45625L312.90936 34.175Q313.05 35.221874 313.72186 35.784374Q314.39374 36.33125 315.59686 36.33125Q316.8 36.33125 317.3781 35.846874Q317.97186 35.346874 317.97186 34.690624Q317.97186 34.096874 317.45624 33.753124Q317.09686 33.51875 315.65936 33.159374Q313.72186 32.659374 312.97186 32.315624Q312.2375 31.95625 311.84686 31.33125Q311.45624 30.690624 311.45624 29.925Q311.45624 29.2375 311.76874 28.64375Q312.09686 28.05 312.64374 27.659374Q313.05 27.3625 313.7531 27.159374Q314.47186 26.940624 315.28436 26.940624Q316.5031 26.940624 317.425 27.3Q318.34686 27.64375 318.78436 28.253124Q319.22186 28.846874 319.39374 29.846874L317.675 30.08125Q317.55 29.284374 316.9875 28.846874Q316.425 28.39375 315.40936 28.39375Q314.1906 28.39375 313.675 28.8Q313.15936 29.190624 313.15936 29.721874Q313.15936 30.065624 313.3781 30.346874Q313.58124 30.628124 314.05 30.815624Q314.3156 30.909374 315.59686 31.253124Q317.47186 31.753124 318.20624 32.08125Q318.9406 32.39375 319.3625 33.003124Q319.78436 33.596874 319.78436 34.503124Q319.78436 35.378124 319.26874 36.159374Q318.7531 36.940624 317.78436 37.3625Q316.8156 37.784374 315.59686 37.784374Q313.58124 37.784374 312.51874 36.940624Q311.45624 36.096874 311.15936 34.45625ZM328.09686 37.55L328.09686 23.2375L333.4875 23.2375Q334.925 23.2375 335.675 23.3625Q336.72186 23.55 337.4406 24.05Q338.15936 24.534374 338.58124 25.425Q339.01874 26.315624 339.01874 27.378124Q339.01874 29.20625 337.84686 30.471874Q336.6906 31.721874 333.65936 31.721874L329.9875 31.721874L329.9875 37.55L328.09686 37.55ZM329.9875 30.034374L333.6906 30.034374Q335.51874 30.034374 336.28436 29.3625Q337.0656 28.675 337.0656 27.425Q337.0656 26.534374 336.6125 25.89375Q336.15936 25.253124 335.425 25.05Q334.9406 24.925 333.64374 24.925L329.9875 24.925L329.9875 30.034374ZM347.97186 34.20625L349.78436 34.440624Q349.3625 36.01875 348.1906 36.909374Q347.03436 37.784374 345.22186 37.784374Q342.95624 37.784374 341.6125 36.39375Q340.28436 34.9875 340.28436 32.45625Q340.28436 29.83125 341.6281 28.39375Q342.97186 26.940624 345.1281 26.940624Q347.20624 26.940624 348.51874 28.3625Q349.84686 29.76875 349.84686 32.346874Q349.84686 32.503124 349.83124 32.815624L342.09686 32.815624Q342.1906 34.51875 343.0656 35.425Q343.9406 36.33125 345.2375 36.33125Q346.20624 36.33125 346.8781 35.83125Q347.5656 35.315624 347.97186 34.20625ZM342.1906 31.3625L347.9875 31.3625Q347.8781 30.065624 347.33124 29.409374Q346.4875 28.39375 345.14374 28.39375Q343.9406 28.39375 343.1125 29.20625Q342.28436 30.003124 342.1906 31.3625ZM351.84686 37.55L351.84686 27.175L353.425 27.175L353.425 28.753124Q354.03436 27.64375 354.55 27.3Q355.0656 26.940624 355.675 26.940624Q356.5656 26.940624 357.4875 27.503124L356.8781 29.14375Q356.2375 28.753124 355.59686 28.753124Q355.01874 28.753124 354.55 29.1125Q354.09686 29.45625 353.89374 30.065624Q353.6125 31.003124 353.6125 32.1125L353.6125 37.55L351.84686 37.55ZM375.3156 32.534374L377.20624 33.003124Q376.6125 35.346874 375.0656 36.58125Q373.51874 37.8 371.26874 37.8Q368.95624 37.8 367.5031 36.8625Q366.0656 35.909374 365.3 34.128124Q364.55 32.33125 364.55 30.284374Q364.55 28.05 365.39374 26.39375Q366.2531 24.721874 367.83124 23.8625Q369.40936 22.9875 371.3 22.9875Q373.45624 22.9875 374.90936 24.08125Q376.3781 25.175 376.95624 27.159374L375.09686 27.596874Q374.59686 26.034374 373.64374 25.33125Q372.70624 24.6125 371.26874 24.6125Q369.6125 24.6125 368.5031 25.409374Q367.39374 26.190624 366.9406 27.534374Q366.5031 28.8625 366.5031 30.26875Q366.5031 32.096874 367.03436 33.471874Q367.5656 34.83125 368.6906 35.503124Q369.8156 36.175 371.1125 36.175Q372.70624 36.175 373.8156 35.253124Q374.925 34.33125 375.3156 32.534374ZM378.22186 32.3625Q378.22186 29.4875 379.8156 28.096874Q381.15936 26.940624 383.08124 26.940624Q385.22186 26.940624 386.5656 28.346874Q387.925 29.753124 387.925 32.221874Q387.925 34.221874 387.33124 35.378124Q386.7375 36.51875 385.58124 37.159374Q384.4406 37.784374 383.08124 37.784374Q380.89374 37.784374 379.55 36.39375Q378.22186 34.9875 378.22186 32.3625ZM380.01874 32.3625Q380.01874 34.3625 380.8781 35.346874Q381.7531 36.33125 383.08124 36.33125Q384.39374 36.33125 385.2531 35.346874Q386.1281 34.346874 386.1281 32.3Q386.1281 30.378124 385.2531 29.39375Q384.3781 28.39375 383.08124 28.39375Q381.7531 28.39375 380.8781 29.39375Q380.01874 30.378124 380.01874 32.3625ZM389.84686 37.55L389.84686 27.175L391.425 27.175L391.425 28.753124Q392.03436 27.64375 392.55 27.3Q393.0656 26.940624 393.675 26.940624Q394.5656 26.940624 395.4875 27.503124L394.8781 29.14375Q394.2375 28.753124 393.59686 28.753124Q393.01874 28.753124 392.55 29.1125Q392.09686 29.45625 391.89374 30.065624Q391.6125 31.003124 391.6125 32.1125L391.6125 37.55L389.84686 37.55ZM403.97186 34.20625L405.78436 34.440624Q405.3625 36.01875 404.1906 36.909374Q403.03436 37.784374 401.22186 37.784374Q398.95624 37.784374 397.6125 36.39375Q396.28436 34.9875 396.28436 32.45625Q396.28436 29.83125 397.6281 28.39375Q398.97186 26.940624 401.1281 26.940624Q403.20624 26.940624 404.51874 28.3625Q405.84686 29.76875 405.84686 32.346874Q405.84686 32.503124 405.83124 32.815624L398.09686 32.815624Q398.1906 34.51875 399.0656 35.425Q399.9406 36.33125 401.2375 36.33125Q402.20624 36.33125 402.8781 35.83125Q403.5656 35.315624 403.97186 34.20625ZM398.1906 31.3625L403.9875 31.3625Q403.8781 30.065624 403.33124 29.409374Q402.4875 28.39375 401.14374 28.39375Q399.9406 28.39375 399.1125 29.20625Q398.28436 30.003124 398.1906 31.3625Z" fill-rule="nonzero"/></svg>